<svg width="21" height="32" viewBox="0 0 21 32" fill="none" xmlns="http://www.w3.org/2000/svg">
<path d="M19.7815 28.9775C12.9761 28.1178 7.84428 22.2102 7.84428 15.2358C7.84428 13.0019 8.38046 10.7869 9.39364 8.82155C10.6416 7.48448 11.1249 5.56856 10.6547 3.78656C10.1728 1.96053 8.7545 0.520592 6.95349 0.0286291C6.6702 -0.0488565 6.36764 0.0335398 6.16033 0.244357C4.84296 1.58467 4.32383 3.55169 4.80575 5.37797C5.20192 6.879 6.23099 8.1186 7.58501 8.78576C7.27655 9.47148 7.01924 10.1807 6.8125 10.9053C6.66143 10.6983 6.49511 10.5009 6.31296 10.316C4.99633 8.97926 3.05909 8.4521 1.25702 8.9404C0.973475 9.01722 0.751987 9.2421 0.676327 9.52999C0.195479 11.3596 0.71469 13.3266 2.03116 14.6634C3.0231 15.6707 4.3672 16.2181 5.74055 16.2181C5.90499 16.2181 6.06992 16.2101 6.23468 16.1943C6.28805 17.0756 6.41379 17.9391 6.60757 18.7776C6.37453 18.6749 6.13304 18.5882 5.88401 18.5205C4.0857 18.031 2.14822 18.5581 0.827975 19.8958C0.62034 20.1062 0.53927 20.4134 0.615504 20.7012C1.10004 22.5299 2.51832 23.9698 4.31678 24.459C4.76091 24.5799 5.21323 24.6387 5.66285 24.6387C6.73315 24.6386 7.78617 24.3036 8.66999 23.6782C9.16747 24.4556 9.73193 25.1858 10.3557 25.8602C8.60113 25.9567 6.98989 26.9526 6.10279 28.509C5.95581 28.7669 5.95581 29.0848 6.10279 29.3428C7.03694 30.9818 8.77393 32 10.6359 32C12.4907 32 14.2212 30.9894 15.158 29.3615C16.5306 29.9963 18.0152 30.4321 19.579 30.6296C19.6133 30.6339 19.6474 30.636 19.6812 30.636C20.0888 30.636 20.442 30.3276 20.4936 29.9063C20.5496 29.45 20.2307 29.0343 19.7815 28.9775ZM4.74115 22.851C3.6665 22.5587 2.78924 21.7715 2.36011 20.7441C3.23762 20.0722 4.38457 19.8356 5.45972 20.1282C6.53437 20.4206 7.41164 21.2078 7.84076 22.2351C6.96317 22.907 5.81572 23.1434 4.74115 22.851ZM6.38928 4.9471C6.10131 3.85589 6.33411 2.69102 6.99587 1.79998C8.00782 2.23568 8.78319 3.12639 9.07108 4.21743C9.35904 5.30864 9.12616 6.47351 8.4644 7.36455C7.45254 6.92877 6.67725 6.03822 6.38928 4.9471ZM3.19049 13.4863C2.40372 12.6875 2.03173 11.5605 2.166 10.4528C3.25713 10.3167 4.36695 10.6942 5.15364 11.493C5.9404 12.2918 6.31239 13.4188 6.17812 14.5264C5.08691 14.6624 3.97726 14.285 3.19049 13.4863ZM10.636 30.3353C9.5234 30.3353 8.47547 29.8054 7.79903 28.9257C8.47547 28.0462 9.5234 27.5162 10.636 27.5162C11.7486 27.5162 12.7965 28.0461 13.473 28.9257C12.7966 29.8054 11.7486 30.3353 10.636 30.3353Z" fill="#7B88AD"/>
</svg>
