<?xml version="1.0" standalone="no"?>
<!DOCTYPE svg PUBLIC "-//W3C//DTD SVG 20010904//EN"
 "http://www.w3.org/TR/2001/REC-SVG-20010904/DTD/svg10.dtd">
<svg version="1.0" xmlns="http://www.w3.org/2000/svg"
 width="498.000000pt" height="498.000000pt" viewBox="0 0 498.000000 498.000000"
 preserveAspectRatio="xMidYMid meet">
<metadata>
Created by potrace 1.14, written by Peter Selinger 2001-2017
</metadata>
<g transform="translate(0.000000,498.000000) scale(0.100000,-0.100000)"
fill="#000000" stroke="none">
<path d="M2355 4664 c-143 -35 -280 -133 -360 -259 -36 -55 -72 -136 -79 -175
-2 -14 -7 -36 -10 -50 -8 -34 -14 -128 -9 -134 3 -3 7 -24 9 -48 5 -69 41
-188 55 -188 5 0 8 -3 7 -7 -3 -13 32 -73 42 -73 6 0 10 -6 10 -13 0 -19 120
-130 174 -160 55 -31 144 -65 194 -74 50 -9 176 -9 232 1 80 14 250 93 250
116 0 6 6 10 13 10 12 0 63 51 112 112 31 38 75 124 68 132 -3 3 -2 6 4 6 5 0
10 6 11 13 0 6 7 37 15 67 18 71 21 192 7 255 -7 28 -13 55 -14 62 -1 7 -5 16
-9 19 -4 4 -7 16 -7 26 0 10 -4 18 -8 18 -5 0 -9 6 -9 13 0 40 -166 237 -199
237 -7 0 -14 4 -16 9 -7 19 -138 76 -203 88 -61 12 -226 10 -280 -3z"/>
<path d="M979 3566 c-2 -2 -26 -6 -52 -9 -69 -9 -151 -49 -209 -104 -41 -40
-77 -88 -83 -113 -1 -3 -7 -18 -14 -35 -7 -16 -14 -41 -16 -55 -2 -14 -4 -25
-5 -25 -8 0 -4 -100 6 -132 6 -24 10 -43 8 -43 -2 0 9 -26 25 -58 26 -52 62
-94 130 -151 41 -35 217 -151 229 -151 7 0 12 -4 12 -9 0 -5 20 -18 44 -30 25
-11 47 -25 51 -31 3 -6 11 -8 16 -5 5 4 9 1 9 -5 0 -6 4 -9 9 -6 5 4 11 2 13
-2 1 -5 44 -27 93 -51 50 -23 98 -46 107 -51 10 -6 24 -10 32 -10 7 0 19 -7
26 -15 11 -13 9 -19 -8 -38 -11 -12 -22 -26 -23 -32 -1 -5 -16 -32 -33 -60
-80 -127 -162 -336 -181 -465 -31 -208 -28 -363 11 -530 9 -36 17 -72 19 -80
5 -25 34 -105 52 -146 9 -21 17 -41 18 -44 8 -36 141 -250 190 -305 175 -196
331 -310 540 -392 113 -45 213 -72 291 -78 17 -1 35 -4 40 -7 22 -12 166 -14
304 -5 81 6 156 19 245 43 11 3 25 6 30 7 6 2 15 5 20 8 13 8 85 32 105 35 8
2 16 8 18 13 2 6 11 11 20 11 10 0 35 11 57 24 22 14 59 35 83 47 23 12 42 26
42 31 0 4 7 8 15 8 8 0 15 4 15 8 0 5 9 13 19 18 55 26 218 185 281 274 14 19
35 45 47 59 12 14 20 28 18 32 -3 4 2 10 11 13 8 3 12 10 9 16 -3 5 -3 10 2
10 4 0 14 15 22 33 8 17 17 34 21 37 6 5 71 147 75 165 9 41 19 72 27 81 5 7
8 16 7 20 -1 5 0 11 1 14 4 11 20 95 26 140 10 69 12 306 4 370 -15 116 -32
195 -49 235 -5 11 -15 41 -21 68 -7 26 -17 47 -23 47 -6 0 -8 3 -4 6 6 6 -98
214 -112 224 -4 3 -17 22 -30 42 l-22 38 138 66 c76 37 141 66 146 66 4 -1 7
2 7 7 0 5 12 14 28 20 26 11 76 38 97 54 5 4 55 37 110 73 55 37 107 72 115
80 104 94 137 139 168 232 11 34 13 160 2 177 -3 6 -7 24 -9 40 -2 17 -7 32
-12 33 -5 2 -9 12 -9 22 0 11 -8 24 -17 29 -10 6 -15 11 -11 11 10 0 -17 34
-60 76 -33 33 -151 99 -160 90 -2 -3 -13 -1 -23 5 -21 11 -118 13 -164 4 -51
-10 -133 -52 -196 -100 -32 -25 -64 -45 -69 -45 -6 0 -10 -4 -10 -8 0 -5 -12
-15 -27 -22 -16 -8 -35 -19 -43 -26 -17 -14 -109 -64 -190 -104 -65 -33 -160
-71 -250 -100 -36 -12 -72 -24 -80 -27 -8 -3 -19 -7 -25 -7 -5 -1 -29 -8 -53
-15 -24 -6 -58 -14 -75 -16 -18 -3 -54 -9 -80 -15 -27 -5 -51 -9 -55 -9 -4 1
-9 0 -12 -1 -15 -7 -84 -9 -240 -10 -210 0 -226 1 -385 27 -22 4 -44 7 -50 8
-8 1 -40 8 -95 20 -3 1 -25 7 -50 15 -25 7 -49 14 -55 16 -5 1 -29 9 -53 18
-23 8 -46 16 -50 17 -34 7 -193 79 -214 97 -9 8 -22 11 -27 7 -6 -3 -11 -2
-11 2 0 10 -71 50 -78 45 -3 -2 -9 3 -14 12 -5 9 -15 16 -22 16 -7 0 -26 11
-42 25 -16 14 -33 25 -37 25 -4 0 -13 4 -20 10 -57 47 -76 60 -86 60 -6 0 -11
4 -11 10 0 5 -27 23 -60 40 -33 17 -60 28 -60 26 0 -2 -20 2 -43 9 -26 8 -50
10 -58 5 -8 -5 -16 -5 -19 1 -4 5 -8 8 -11 5z m1588 -1312 c72 -5 91 -8 99
-17 4 -4 14 -7 22 -7 23 0 158 -69 177 -90 10 -11 22 -20 26 -20 10 0 88 -79
109 -110 8 -12 22 -29 30 -38 8 -9 15 -18 14 -21 0 -3 12 -33 26 -66 30 -65
42 -114 46 -185 2 -25 4 -47 5 -50 1 -3 0 -9 -1 -15 -1 -5 -3 -30 -5 -55 -6
-94 -57 -229 -117 -305 -38 -49 -103 -110 -142 -134 -20 -13 -36 -27 -36 -32
0 -5 -3 -8 -7 -7 -5 1 -21 -5 -38 -14 -16 -8 -48 -21 -70 -27 -22 -7 -47 -15
-55 -18 -61 -22 -224 -18 -320 7 -44 12 -80 26 -80 30 0 5 -13 11 -30 15 -16
4 -30 11 -30 16 0 5 -7 9 -16 9 -30 0 -177 161 -216 238 -21 39 -35 72 -32 72
4 0 2 6 -3 13 -18 22 -36 117 -36 192 0 61 12 166 21 180 4 5 7 15 8 20 4 24
9 40 14 45 3 3 14 23 25 45 26 53 94 142 142 185 89 80 222 137 342 145 23 2
45 6 48 9 3 3 10 3 14 0 5 -3 35 -7 66 -10z"/>
</g>
</svg>
